<svg width="22" height="22" viewBox="0 0 22 22" fill="none" xmlns="http://www.w3.org/2000/svg">
<path d="M9.07992 0.439941C4.57805 0.439941 0.919922 4.09807 0.919922 8.59994C0.919922 13.1018 4.57805 16.7599 9.07992 16.7599C10.8612 16.7599 12.5074 16.1862 13.8499 15.2149L20.1649 21.5149L21.5149 20.1649L15.2749 13.9099C16.5012 12.4812 17.2399 10.6268 17.2399 8.59994C17.2399 4.09807 13.5818 0.439941 9.07992 0.439941ZM9.07992 1.39994C13.0624 1.39994 16.2799 4.61744 16.2799 8.59994C16.2799 12.5824 13.0624 15.7999 9.07992 15.7999C5.09742 15.7999 1.87992 12.5824 1.87992 8.59994C1.87992 4.61744 5.09742 1.39994 9.07992 1.39994Z" fill="white" fill-opacity="0.8"/>
</svg>
