<svg width="32" height="32" viewBox="0 0 32 32" fill="none" xmlns="http://www.w3.org/2000/svg">
<path d="M16.0002 3.19995C8.9314 3.19995 3.2002 8.93115 3.2002 16C3.2002 23.0688 8.9314 28.7999 16.0002 28.7999C23.069 28.7999 28.8002 23.0688 28.8002 16C28.8002 8.93115 23.069 3.19995 16.0002 3.19995ZM22.7853 20.2314L20.7927 20.2591C20.7927 20.2591 20.3629 20.3434 19.8007 19.9552C19.0551 19.4431 18.3522 18.1109 17.8039 18.2837C17.2482 18.4608 17.2653 19.6597 17.2653 19.6597C17.2653 19.6597 17.2695 19.8709 17.1426 20.0085C17.005 20.1567 16.7351 20.1418 16.7351 20.1418H15.8423C15.8423 20.1418 13.8733 20.305 12.1378 18.496C10.2477 16.5237 8.57726 12.6314 8.57726 12.6314C8.57726 12.6314 8.47913 12.3861 8.58366 12.2602C8.70206 12.1216 9.02099 12.1173 9.02099 12.1173L11.1543 12.1066C11.1543 12.1066 11.3549 12.1418 11.4999 12.2485C11.6183 12.336 11.6855 12.5002 11.6855 12.5002C11.6855 12.5002 12.0301 13.3738 12.4877 14.1653C13.3794 15.7077 13.7933 16.0458 14.0962 15.8805C14.5378 15.6394 14.4055 13.7002 14.4055 13.7002C14.4055 13.7002 14.4141 12.9962 14.1837 12.6826C14.0045 12.4384 13.6674 12.3658 13.5202 12.3477C13.3997 12.3317 13.5959 12.0522 13.8519 11.9264C14.2359 11.7386 14.9143 11.728 15.7154 11.7354C16.3394 11.7418 16.5197 11.7802 16.7629 11.84C17.4989 12.0181 17.2493 12.705 17.2493 14.353C17.2493 14.881 17.1543 15.6234 17.5341 15.8677C17.6983 15.9733 18.0983 15.8837 19.0957 14.1834C19.5703 13.377 19.9255 12.4298 19.9255 12.4298C19.9255 12.4298 20.0034 12.2613 20.1239 12.1888C20.2477 12.1141 20.4141 12.1376 20.4141 12.1376L22.6594 12.1237C22.6594 12.1237 23.3335 12.0426 23.4434 12.3488C23.5586 12.6687 23.1917 13.4165 22.2743 14.64C20.7682 16.6496 20.6007 16.4629 21.8519 17.6256C23.0466 18.736 23.293 19.2757 23.3346 19.344C23.8285 20.1664 22.7853 20.2314 22.7853 20.2314Z" fill="white" fill-opacity="0.7"/>
</svg>
